<svg id="Layer_1" enable-background="new 0 0 256 256" height="512" viewBox="0 0 256 256" width="512" xmlns="http://www.w3.org/2000/svg"><g id="Layer_33"><g><path d="m233.5 36.8h-211c-6.6 0-12 5.4-12 12v140 .9c.6 6.1 5.8 10.7 11.9 10.6h211.2c6.1.1 11.3-4.5 11.9-10.6 0-.3 0-.6 0-.9v-140c0-6.7-5.4-12-12-12z" fill="#3a70bf"/><path d="m233.6 190.2c.9.1 1.7-.5 1.9-1.4v-.1-140c0-1.1-.9-2-2-2h-211c-1.1 0-2 .9-2 2v140 .2c.2.8 1 1.4 1.9 1.3z" fill="#9be5f9"/><path d="m179.9 190.2-.9-15.6c-.2-4.4-3.3-8.1-7.6-9.2l-19.8-5-11.9-5.9-5.5 11.3c-.4.8-1.3 1.4-2.2 1.4h-8.6c-1 0-1.8-.6-2.2-1.4l-5.1-11.2-11.9 5.9-19.8 5c-4.3 1.1-7.3 4.8-7.6 9.2l-.9 15.6z" fill="#c7d7e5"/><path d="m248.6 200.2h-241.2c-2.7 0-4.9 2.2-4.9 4.9 0 7.8 6.3 14.1 14.1 14.1h222.8c7.8 0 14.1-6.3 14.1-14.1 0-2.7-2.2-4.8-4.9-4.9z" fill="#edf4fc"/><g fill="#f2ba94"><path d="m153.1 108.1v14.3c0 .6 0 1.1-.1 1.7 5.8 1 11.2-2.9 12.2-8.7.2-1 .2-2.1.1-3.1-4.4-.1-8.7-1.6-12.2-4.2z"/><path d="m102.1 122.4v-19.4c-5.8-.9-11.3 3-12.2 8.8s3 11.3 8.8 12.2c1.2.2 2.3.2 3.5 0 0-.5-.1-1.1-.1-1.6z"/><path d="m145.8 97.2c-6.7-1.3-10.6-4.3-12.3-5.9-.5-.5-1.4-.5-1.9 0 0 0-.1.1-.1.1-9.3 11.7-23.1 10.1-27.7 9.1-.7-.2-1.5.3-1.6 1v.3 20.5c0 14.1 11.4 25.5 25.5 25.5 14.1 0 25.5-11.4 25.5-25.5v-14.3c-3.6-2.6-6.2-6.5-7.4-10.8z"/></g><path d="m145 91.8c0-7.2 3.8-13.8 9.9-17.5-4.6-2.7-10.3-2.7-14.8.1-2.6-4.4-7.4-7.1-12.5-7.1h-7.5c-14.5 0-26.3 11.8-26.3 26.3v11.8c2.3-1.9 5.3-2.7 8.3-2.2v-1.2c0-.8.6-1.4 1.4-1.3h.3c4.6 1 18.4 2.6 27.7-9.1.5-.6 1.3-.7 1.9-.2 0 0 .1.1.1.1 1.7 1.7 5.5 4.6 12.3 5.9-.5-2-.8-3.8-.8-5.6z" fill="#893c1a"/><path d="m127.6 147.9c-4 0-7.8-.9-11.4-2.7v9.4l5.1 11.2c.4.9 1.3 1.4 2.2 1.4h8.6c.9 0 1.8-.5 2.2-1.4l5.5-11.3v-9.8c-3.8 2.1-7.9 3.2-12.2 3.2z" fill="#f2ba94"/><path d="m151.7 160.5-5.9 14.5c-.5 1.1-1.7 1.7-2.9 1.2-.3-.1-.7-.4-.9-.7l-7.8-9.6 5.5-11.3z" fill="#edf4fc"/><path d="m110.2 175c.5 1.1 1.7 1.7 2.9 1.2.3-.1.7-.4.9-.7l7.5-9.4c-.1-.1-.1-.2-.2-.3l-5.1-11.2-7.9 3.9-4 2z" fill="#edf4fc"/><circle cx="165.5" cy="91.8" fill="#87d147" r="20.5"/><path d="m233.5 46.8h-211c-1.1 0-2 .9-2 2v8.5h215v-8.5c0-1.1-.9-2-2-2z" fill="#edf4fc"/><path d="m36 46.8h-13.5c-1.1 0-2 .9-2 2v8.5h15.5z" fill="#9be5f9"/><path d="m84 200.2v1.7c0 3.7 3 6.8 6.8 6.8h75.4c3.7 0 6.8-3 6.8-6.8v-1.7z" fill="#c7d7e5"/><path d="m66.6 21.9c-4-.7-7.1-3.8-7.9-7.7 0-.1-.1-.2-.2-.1-.1 0-.1.1-.1.1-.8 4-3.9 7-7.9 7.7-.1 0-.2.1-.1.2 0 .1.1.1.1.1 4 .7 7.1 3.8 7.9 7.7 0 .1.1.2.2.1.1 0 .1-.1.1-.1.8-4 3.9-7 7.9-7.7.1 0 .2-.1.1-.2 0 0 0-.1-.1-.1z" fill="#ef4460"/><circle cx="105.7" cy="233.6" fill="#b2e26d" r="3"/><circle cx="88.7" cy="10.6" fill="#f5c84c" r="3"/><circle cx="202.7" cy="21.6" fill="#3caadc" r="3"/><path d="m141.3 237.9h-2.1v-2.1c0-1.5-1.3-2.8-2.8-2.8s-2.8 1.3-2.8 2.8v2.1h-2.1c-1.5 0-2.8 1.3-2.8 2.8s1.3 2.8 2.8 2.8h2.1v2.1c0 1.5 1.3 2.8 2.8 2.8s2.8-1.3 2.8-2.8v-2.1h2.1c1.5 0 2.8-1.3 2.8-2.8s-1.3-2.8-2.8-2.8z" fill="#f5c84c"/><path d="m118.4 127.3c-1.1.8-1.4 2.3-.7 3.5 3.8 5.7 11.5 7.1 17.2 3.3 1.3-.9 2.4-2 3.3-3.3.8-1.1.5-2.7-.7-3.5-1.1-.8-2.7-.5-3.5.7-2.3 3.4-6.9 4.3-10.2 2-.8-.5-1.5-1.2-2-2-.7-1.2-2.2-1.5-3.4-.7z"/><path d="m118.3 116.1c1.4 0 2.5-1.1 2.5-2.5s-1.1-2.5-2.5-2.5-2.5 1.1-2.5 2.5c0 1.3 1.1 2.5 2.5 2.5z"/><path d="m137.7 116.1c1.4 0 2.5-1.1 2.5-2.5s-1.1-2.5-2.5-2.5c-.2 0-.3 0-.5 0-1.4.3-2.2 1.6-2 2.9.3 1.2 1.3 2.1 2.5 2.1z"/><path d="m248.6 197.8h-4c2.2-2.5 3.4-5.7 3.4-9v-140c0-8-6.5-14.5-14.5-14.5h-211c-8 0-14.5 6.5-14.5 14.5v140c0 3.3 1.2 6.5 3.4 9h-4c-4.1 0-7.4 3.3-7.4 7.4 0 9.2 7.4 16.6 16.6 16.6h222.8c9.2 0 16.6-7.4 16.6-16.6 0-4.1-3.3-7.4-7.4-7.4zm-235.6-149c0-5.2 4.3-9.5 9.5-9.5h211c5.2 0 9.5 4.3 9.5 9.5v140c-.1 5.1-4.3 9.1-9.4 9h-211.2c-5.1.1-9.3-3.9-9.4-9zm157.4 154c-.4 2-2.2 3.5-4.2 3.5h-75.4c-2.1 0-3.8-1.5-4.2-3.5zm69 14h-222.8c-6.4 0-11.6-5.2-11.6-11.6 0-1.3 1.1-2.4 2.4-2.4h74.1c.4 4.8 4.4 8.5 9.2 8.5h75.4c4.8 0 8.8-3.7 9.2-8.5h73.1c1.3 0 2.4 1.1 2.4 2.4.2 6.4-5 11.5-11.4 11.6z"/><path d="m166.1 99.3 9.9-9.9c1-1 1-2.5 0-3.5s-2.5-1-3.5 0l-8.1 8.1-3.9-3.9c-1-1-2.5-1-3.5 0s-1 2.5 0 3.5l5.7 5.7c.9 1 2.5 1 3.4 0z"/><path d="m22.4 192.8h211.2c2.3.1 4.3-1.7 4.4-4v-140c0-2.5-2-4.5-4.5-4.5h-211c-2.5 0-4.5 2-4.5 4.5v140c.1 2.3 2.1 4 4.4 4zm56.3-5 .7-13c.2-3.3 2.5-6.1 5.7-6.9l17.7-4.5 5.1 12.5c1 2.4 3.7 3.6 6.1 2.6.7-.3 1.4-.8 1.9-1.4l6.1-7.6c.5.2 1 .2 1.5.2h8.6c.6 0 1.2-.1 1.8-.4l6.2 7.7c1.6 2 4.6 2.3 6.6.7.6-.5 1.1-1.2 1.4-1.9l5.1-12.5 17.7 4.5c3.2.8 5.5 3.6 5.7 6.9l.7 13zm25.9-65.4v-19.1c10.4 1.7 20.9-1.1 28-9.3 3.3 2.6 7.1 4.5 11.2 5.5 1.4 3.9 3.7 7.3 6.8 9.9v13.1c0 8.4-4.6 16.1-12 20.2h-.1c-6.6 3.6-14.5 3.7-21.2.3h-.1c-7.7-4-12.6-12-12.6-20.6zm-8.3-21.3v-7.6c0-13.2 10.7-23.8 23.8-23.8h7.5c4.2 0 8.2 2.3 10.3 5.9.7 1.2 2.2 1.6 3.4.9 2.5-1.5 5.5-2.1 8.4-1.5-4.7 4.3-7.4 10.4-7.4 16.8 0 .9.1 1.5.1 2-2.7-.9-5.2-2.3-7.4-4.3-1.5-1.5-4-1.5-5.5.1-.1.1-.2.2-.3.3-8.3 10.4-20.4 9.2-25.2 8.2-1.8-.4-3.7.6-4.4 2.4-.9 0-2.1.2-3.3.6zm3.3 4.4v16.2c-4.5-.5-7.7-4.5-7.2-9 .4-3.8 3.4-6.8 7.2-7.2zm47.9-13.7c0-9.9 8.1-18 18-18s18 8.1 18 18-8.1 18-18 18h-.1c-9.9-.2-17.9-8.2-17.9-18zm15.4 22.8c-.5 3.7-3.5 6.7-7.2 7.1v-9.1c2.2 1 4.6 1.7 7.2 2zm-22 43.3 7.6 3.7-4.8 11.9-6.4-8zm-8.9 6.9h-8.5l-4.8-10.7v-5.1c6 2 12.5 1.9 18.5-.3v5.4zm-13.4 1-6.2 7.7-4.8-11.9 7.5-3.7zm-80.1-116.6h194.5v5.5h-194.5zm-15.5 0h10.5v5.5h-10.5zm0 10.6h210v128h-50.7l-.7-13.2c-.3-5.5-4.1-10.2-9.5-11.5l-19.5-4.9-10.3-5.1v-6.8c7-4.3 11.8-11.4 13-19.5 6.6-.3 12-5.4 12.6-12.1 12.6-1.3 21.8-12.6 20.5-25.2s-12.6-21.8-25.2-20.5c-2.9.3-5.7 1.1-8.3 2.5-4.4-2.1-9.5-2.2-13.9-.3-3.2-4-8.1-6.4-13.3-6.4h-7.5c-15.9 0-28.8 12.9-28.8 28.8v10.7c-5.2 5-5.4 13.3-.3 18.6 2.4 2.4 5.6 3.9 8.9 4 1.3 8.4 6.4 15.7 13.8 20v6.4l-10.3 5.1-19.6 4.6c-5.3 1.3-9.2 6-9.5 11.5l-.7 13.2h-50.7z"/></g></g></svg>