<svg id="Layer_1" enable-background="new 0 0 256 256" height="512" viewBox="0 0 256 256" width="512" xmlns="http://www.w3.org/2000/svg"><g id="Layer_16"><g><path d="m109.1 11.2h-2.1v-2c0-1.5-1.3-2.8-2.8-2.8s-2.8 1.3-2.8 2.8v2.1h-2.1c-1.5 0-2.8 1.3-2.8 2.8s1.3 2.8 2.8 2.8h2.1v2.1c0 1.5 1.3 2.8 2.8 2.8s2.8-1.3 2.8-2.8v-2.1h2.1c1.5 0 2.8-1.3 2.8-2.8 0-1.6-1.2-2.9-2.8-2.9z" fill="#ef4460"/><circle cx="138" cy="3" fill="#70d6f9" r="3"/><path d="m241.4 37.5h-83.4c7.9 3.4 16.1 6.3 24.5 8.6 2.5.7 4.2 3 4.2 5.6v28.6c0 34.2-18.9 65.7-49.5 83.6-5.8 3.4-13 3.4-18.8 0-30.5-17.8-49.5-49.3-49.5-83.6v-28.6c0-2.6 1.7-4.9 4.2-5.6 8.3-2.3 16.5-5.1 24.5-8.6h-83c-6.7.1-12.1 5.5-12.1 12.2v150c0 6.7 5.4 12.1 12.1 12.1h226.7c6.7 0 12.1-5.4 12.1-12.1v-150c.1-6.7-5.3-12.1-12-12.2z" fill="#3a70bf"/><path d="m161.3 241.4h-66.6c-3.3 0-5.9 2.7-5.8 6 0 3.2 2.6 5.8 5.8 5.8h66.5c3.3 0 5.9-2.7 5.8-6 0-3.2-2.5-5.8-5.7-5.8z" fill="#edf4fc"/><path d="m102.3 211.9h51.5v29.5h-51.5z" fill="#c7d7e5"/><path d="m2.5 187.7v12c0 6.7 5.4 12.1 12.1 12.1h226.7c6.7 0 12.1-5.4 12.1-12.1v-12z" fill="#edf4fc"/><path d="m241.4 48.3h-55.9c.7 1 1.1 2.2 1.1 3.5v28.6c0 34.2-18.9 65.7-49.5 83.6-5.8 3.4-13 3.4-18.8 0-30.5-17.8-49.5-49.3-49.5-83.6v-28.7c0-1.2.4-2.5 1.1-3.5h-55.3c-.8 0-1.4.6-1.4 1.4v138h229.5v-138c.1-.7-.6-1.3-1.3-1.3z" fill="#ef4460"/><path d="m13.2 176.8h229.5v10.9h-229.5z" fill="#3caadc"/><path d="m13.2 176.8h22.3v10.9h-22.3z" fill="#f5c84c"/><path d="m202.7 241.2c-4-.7-7.1-3.8-7.9-7.7 0-.1-.1-.2-.2-.1-.1 0-.1.1-.1.1-.8 4-3.9 7-7.9 7.7-.1 0-.2.1-.1.2 0 .1.1.1.1.1 4 .7 7.1 3.8 7.9 7.7 0 .1.1.2.2.1.1 0 .1-.1.1-.1.8-4 3.9-7 7.9-7.7.1 0 .2-.1.1-.2.1 0 0 0-.1-.1z" fill="#f5c84c"/><circle cx="72" cy="233" fill="#5290db" r="3"/><circle cx="178" cy="226.3" fill="#b2e26d" r="3"/><g fill="#fc657e"><path d="m196.2 89.1c-1.4 0-2.5-1.1-2.5-2.5 0-.7.3-1.3.8-1.8l12.2-11.8c.5-.5 1.1-.7 1.7-.7h14.4c1.4 0 2.5 1.1 2.5 2.5s-1.1 2.5-2.5 2.5h-13.4l-11.5 11.1c-.4.4-1.1.7-1.7.7z"/><path d="m223.3 147.8h-14.4c-.6 0-1.3-.3-1.7-.7l-12.2-11.8c-1-1-1-2.5-.1-3.5s2.5-1 3.5-.1l11.5 11.1h13.4c1.4 0 2.5 1.1 2.5 2.5s-1.1 2.5-2.5 2.5z"/><path d="m222.3 112.5h-26.6c-1.4 0-2.5-1.1-2.5-2.5s1.1-2.5 2.5-2.5h26.6c1.4 0 2.5 1.1 2.5 2.5s-1.1 2.5-2.5 2.5z"/><path d="m59.8 89.1c1.4 0 2.5-1.1 2.5-2.5 0-.7-.3-1.3-.8-1.8l-12.2-11.9c-.5-.5-1.1-.7-1.7-.7h-14.4c-1.4 0-2.5 1.1-2.5 2.5s1.1 2.5 2.5 2.5h13.4l11.5 11.1c.4.5 1.1.8 1.7.8z"/><path d="m32.7 147.8h14.4c.6 0 1.3-.3 1.7-.7l12.2-11.8c1-1 1-2.5.1-3.5-1-1-2.5-1-3.5-.1l-11.5 11.1h-13.4c-1.4 0-2.5 1.1-2.5 2.5s1.1 2.5 2.5 2.5z"/><path d="m33.7 112.5h26.6c1.4 0 2.5-1.1 2.5-2.5s-1.1-2.5-2.5-2.5h-26.6c-1.4 0-2.5 1.1-2.5 2.5s1.1 2.5 2.5 2.5z"/></g><path d="m186.6 51.7c0-2.6-1.7-4.9-4.2-5.6-18.8-5.4-35-11.4-46.8-23.9-4.1-4.4-10.9-4.6-15.3-.6-.2.2-.4.4-.6.6-11.8 12.5-28 18.5-46.8 23.9-2.5.7-4.2 3-4.2 5.6v28.6c0 34.2 18.9 65.7 49.5 83.6 5.8 3.4 13 3.4 18.8 0 30.5-17.8 49.5-49.3 49.5-83.6v-28.6z" fill="#edf4fc"/><path d="m176 53.8c-16.7-5-33.9-11.5-46.8-25.1l-1.4-1.5-1.4 1.5c-12.9 13.6-30.1 20.1-46.8 25.1l-1.6.4v26.1c0 30.9 16.8 59.2 44.9 75.6 3 1.7 6.6 1.7 9.6 0 28.1-16.4 44.9-44.7 44.9-75.6v-26.1z" fill="#c7d7e5"/><path d="m94.4 77.7h66.7c1.7 0 3.1 1.4 3.1 3.1v19.4c0 1.7-1.4 3.1-3.1 3.1h-66.7c-1.7 0-3.1-1.4-3.1-3.1v-19.4c0-1.7 1.4-3.1 3.1-3.1z" fill="#ef4460"/><path d="m241.4 35h-82.9c-8.3-3.8-15.2-8.4-21.1-14.5-5-5.4-13.4-5.7-18.8-.7-.2.2-.5.4-.7.7-5.8 6.2-12.7 10.7-21.1 14.5h-82.2c-8 .1-14.6 6.6-14.6 14.7v150c0 8.1 6.6 14.6 14.6 14.6h85.1v24.5h-5c-4.6 0-8.4 3.8-8.4 8.4s3.8 8.4 8.4 8.4h66.5c4.6 0 8.4-3.8 8.4-8.4s-3.8-8.4-8.4-8.4h-5v-24.5h85.1c8.1 0 14.6-6.6 14.6-14.6v-150c.1-8.1-6.5-14.6-14.5-14.7zm-119.8-11.1c3.1-3.4 8.3-3.6 11.7-.5.2.1.3.3.5.5 12.5 13.3 30.2 19.5 47.9 24.6 1.4.4 2.4 1.7 2.4 3.2v28.6c0 33.3-18 63.8-48.2 81.4-5 2.9-11.3 2.9-16.3 0-30.2-17.6-48.2-48.1-48.2-81.4v-28.6c0-1.5 1-2.8 2.4-3.2 17.5-5 35.3-11.2 47.8-24.6zm67.5 26.9h51.2v123.6h-224.6v-123.6h50.7c0 .1-.1.6-.1 1v28.6c0 35.1 19 67.2 50.7 85.7 6.6 3.8 14.8 3.8 21.4 0 31.7-18.5 50.7-50.6 50.7-85.7v-28.7c0-.3 0-.8 0-.9zm51.2 128.6v5.9h-202.3v-5.9zm-207.3 0v5.9h-17.3v-5.9zm-28-129.7c0-5.3 4.3-9.6 9.6-9.6h69.6c-4 1.4-7.8 2.5-11.8 3.7-1.3.4-2.5 1.1-3.5 2h-54.3c-2.2 0-3.9 1.7-3.9 3.9v135.5h-5.7zm156.3 194.2c1.9 0 3.4 1.5 3.4 3.4s-1.5 3.4-3.4 3.4h-66.6c-1.9 0-3.4-1.5-3.4-3.4s1.5-3.4 3.4-3.4zm-56.5-5v-24.5h46.5v24.5zm146.2-39.2c0 5.3-4.3 9.6-9.6 9.6h-226.8c-5.3 0-9.6-4.3-9.6-9.6v-9.5h246zm0-14.5h-5.7v-135.5c0-2.2-1.7-3.9-3.9-3.9h-54.8c-1-1-2.2-1.7-3.5-2-4-1.2-7.8-2.3-11.8-3.7h70.1c5.3 0 9.6 4.3 9.6 9.6z"/><path d="m130.9 197h-5.7c-1.4 0-2.5 1.1-2.5 2.5s1.1 2.5 2.5 2.5h5.7c1.4 0 2.5-1.1 2.5-2.5s-1.2-2.5-2.5-2.5z"/><path d="m75.5 54.2v26.1c0 31.8 17.3 60.9 46.2 77.8 3.7 2.2 8.4 2.2 12.1 0 28.9-16.9 46.2-46 46.2-77.8v-26.1c0-1.1-.7-2.1-1.8-2.4-1-.5-32.3-8.1-47.5-25.1-.5-.6-1-1.1-1.6-1.5-.9-.6-2-.6-2.8 0-.6.4-1.1.9-1.5 1.5-15.2 17-45.6 24.5-47.5 25.2-1.1.3-1.8 1.2-1.8 2.3zm5 1.9c31.4-9.4 42.9-20.6 47.2-25.2 4.2 4.6 15.6 15.7 47.2 25.2v24.3c0 30-16.3 57.5-43.7 73.5-2.2 1.3-4.9 1.3-7.1 0-27.3-16-43.7-43.4-43.7-73.5v-24.3z"/><path d="m166.7 100.2v-19.4c0-3.1-2.5-5.6-5.6-5.6h-66.7c-3.1 0-5.6 2.5-5.6 5.6v19.4c0 3.1 2.5 5.6 5.6 5.6h66.7c3.1 0 5.6-2.5 5.6-5.6zm-72.9 0v-19.4c0-.3.3-.6.6-.6h66.7c.3 0 .6.3.6.6v19.4c0 .3-.3.6-.6.6h-66.7c-.3 0-.6-.3-.6-.6z"/><path d="m109.7 85.6c-1-1-2.6-1-3.5 0l-1.4 1.4-1.4-1.4c-1-1-2.5-1-3.5 0s-1 2.5 0 3.5l1.4 1.4-1.4 1.4c-1 1-1 2.5 0 3.5s2.5 1 3.5 0l1.4-1.4 1.4 1.4c1 1 2.5 1 3.5 0s1-2.5 0-3.5l-1.4-1.4 1.4-1.4c1-1 1-2.6 0-3.5z"/><path d="m125 85.6c-1-1-2.6-1-3.5 0l-1.4 1.4-1.4-1.4c-1-1-2.6-.9-3.5 0-.9 1-.9 2.5 0 3.5l1.4 1.4-1.4 1.4c-1 1-1 2.5 0 3.5s2.5 1 3.5 0l1.4-1.4 1.4 1.4c1 1 2.5 1 3.5 0s1-2.5 0-3.5l-1.4-1.4 1.4-1.4c1-1 1-2.6 0-3.5z"/><path d="m140.3 85.6c-1-1-2.6-1-3.5 0l-1.4 1.4-1.4-1.4c-1-1-2.5-1-3.5 0s-1 2.5 0 3.5l1.4 1.4-1.4 1.4c-1 1-1 2.5 0 3.5s2.5 1 3.5 0l1.4-1.4 1.4 1.4c1 1 2.5 1 3.5 0s1-2.5 0-3.5l-1.4-1.4 1.4-1.4c1-1 1-2.6 0-3.5z"/><path d="m155.7 85.6c-1-1-2.6-1-3.5 0l-1.4 1.4-1.4-1.4c-1-1-2.5-1-3.5 0s-1 2.5 0 3.5l1.4 1.4-1.4 1.4c-1 1-1 2.5 0 3.5s2.5 1 3.5 0l1.4-1.4 1.4 1.4c1 1 2.5 1 3.5 0s1-2.5 0-3.5l-1.4-1.4 1.4-1.4c1-1 1-2.6 0-3.5z"/></g></g></svg>